<?xml version="1.0" standalone="no"?>
<!DOCTYPE svg PUBLIC "-//W3C//DTD SVG 20010904//EN"
 "http://www.w3.org/TR/2001/REC-SVG-20010904/DTD/svg10.dtd">
<svg version="1.0" xmlns="http://www.w3.org/2000/svg"
 width="512.000000pt" height="512.000000pt" viewBox="0 0 512.000000 512.000000"
 preserveAspectRatio="xMidYMid meet">
<metadata>
Created by potrace 1.14, written by Peter Selinger 2001-2017
</metadata>
<g transform="translate(0.000000,512.000000) scale(0.100000,-0.100000)"
fill="#000000" stroke="none">
<path d="M2368 4955 c-2 -2 -32 -6 -68 -9 -297 -24 -607 -127 -835 -277 -44
-29 -82 -55 -85 -58 -3 -3 -36 -33 -74 -65 -55 -49 -129 -128 -196 -213 -75
-94 -181 -305 -229 -455 -37 -116 -77 -311 -88 -423 -10 -100 -10 -405 -1
-465 28 -183 90 -401 170 -599 121 -302 329 -689 555 -1034 118 -179 418 -597
444 -617 3 -3 37 -43 74 -90 152 -188 346 -393 430 -450 69 -48 121 -48 190
-1 74 52 232 214 386 396 190 224 493 647 681 950 196 316 373 670 478 955 32
85 96 309 106 365 2 17 11 64 18 105 13 73 14 410 2 503 -74 553 -287 934
-666 1192 -192 131 -490 240 -740 270 -30 4 -66 9 -80 12 -30 5 -467 12 -472
8z"/>
</g>
</svg>
