<?xml version="1.0" encoding="UTF-8"?>
<svg width="512" height="512" version="1.1" viewBox="0 0 135.47 135.47" xmlns="http://www.w3.org/2000/svg">
 <defs>
  <linearGradient id="background-gradient" x1="3.0381" x2="20.312" y1="3.7318" y2="18.717" gradientTransform="matrix(4.0968 0 0 4.0968 124.85 74.145)" gradientUnits="userSpaceOnUse">
   <stop stop-color="#ed2000" offset="0"/>
   <stop stop-color="#ffb348" offset="1"/>
  </linearGradient>
 </defs>
 <g id="timelet" transform="translate(-104.23 -69.912)">
  <path id="background" d="m171.97 76.194c-28.677 0-45.064 16.387-45.064 45.065 0 28.677 40.712 77.839 45.064 77.839 4.3528 0 45.065-49.161 45.065-77.839 0-28.677-16.387-45.065-45.065-45.065z" fill="url(#background-gradient)" stroke="#3b240f" stroke-linecap="round" stroke-width="4.0968"/>
  <g id="dial" transform="matrix(.55726 0 0 .55726 144.88 92.215)">
   <path id="dial-border" d="m0.0625 48.728c0 26.591 21.737 48.455 48.623 48.455 26.718 0 48.455-21.864 48.455-48.455 1e-3 -26.802-21.736-48.666-48.454-48.666-26.886 5e-4 -48.624 21.864-48.624 48.666z" fill-rule="evenodd" stroke="#000" stroke-linecap="round" stroke-linejoin="round" stroke-width=".042"/>
   <path id="dial-background" d="m7.6599 48.728c0 22.328 18.403 40.857 41.026 40.857 22.455 0 40.857-18.529 40.857-40.857 0-22.539-18.403-41.068-40.857-41.068-22.623 0-41.026 18.529-41.026 41.068z" fill="#fff" fill-rule="evenodd" stroke-width=".042"/>
   <g>
    <circle id="hour-12" transform="matrix(5.9298 0 0 5.9298 -654.03 -446.99)" cx="118.49" cy="78.089" r=".69493"/>
    <circle id="hour-11" cx="32.331" cy="20.259" r="4.1208"/>
    <circle id="hour-10" transform="matrix(5.9298 0 0 5.9298 -654.03 -446.99)" cx="113.92" cy="80.811" r=".69493"/>
    <circle id="hour-09" transform="matrix(5.9298 0 0 5.9298 -654.03 -446.99)" cx="112.94" cy="83.58" r=".69493"/>
    <circle id="hour-08" transform="matrix(5.9298 0 0 5.9298 -654.03 -446.99)" cx="113.74" cy="86.338" r=".69493"/>
    <circle id="hour-07" transform="matrix(5.9298 0 0 5.9298 -654.03 -446.99)" cx="115.75" cy="88.342" r=".69493"/>
    <circle id="hour-06" transform="matrix(5.9298 0 0 5.9298 -654.03 -446.99)" cx="118.49" cy="89.129" r=".69493"/>
    <circle id="hour-05" transform="translate(1.1118e-6)" cx="65" cy="76.86" r="4.2479"/>
    <circle id="hour-04" transform="matrix(5.9298 0 0 5.9298 -654.03 -446.99)" cx="123.25" cy="86.338" r=".69493"/>
    <circle id="hour-03" transform="matrix(5.9298 0 0 5.9298 -654.03 -446.99)" cx="124.01" cy="83.58" r=".69493"/>
    <circle id="hour-02" cx="76.966" cy="32.204" r="4.1208"/>
    <circle id="hour-01" transform="matrix(5.9298 0 0 5.9298 -654.03 -446.99)" cx="121.26" cy="78.797" r=".69493"/>
   </g>
  </g>
  <g id="hands" transform="matrix(.55726 0 0 .55726 144.88 92.215)" stroke="#000" stroke-linecap="round" stroke-linejoin="round" stroke-width="5.6525">
   <path id="hours-hand" d="m48.96 49.207-14.508 8.1612" />
   <path id="minutes-hand" d="m49.313 48.147 6.8299-21.266" />
  </g>
 </g>
</svg>
